<svg xmlns="http://www.w3.org/2000/svg" viewBox="0 0 100 100">
  <circle cx="50" cy="50" r="48" fill="#0a1a0a"/>
  <!-- Flask body -->
  <path d="M38 25 L38 48 L20 75 Q20 82 28 82 L72 82 Q80 82 80 75 L62 48 L62 25 Z"
        fill="#1a3a1a" stroke="#27ae60" stroke-width="2"/>
  <!-- Flask neck -->
  <rect x="38" y="18" width="24" height="10" rx="3" fill="#1a3a1a" stroke="#27ae60" stroke-width="2"/>
  <!-- Liquid -->
  <path d="M24 72 Q30 65 50 68 Q70 65 76 72 L72 80 Q60 83 50 83 Q40 83 28 80 Z"
        fill="#27ae60" opacity="0.8"/>
  <!-- Bubbles -->
  <circle cx="40" cy="70" r="3" fill="#4caf50" opacity="0.6"/>
  <circle cx="55" cy="74" r="2" fill="#4caf50" opacity="0.6"/>
  <circle cx="62" cy="68" r="2.5" fill="#4caf50" opacity="0.6"/>
  <!-- Drops on outside -->
  <circle cx="50" cy="12" r="4" fill="#27ae60" opacity="0.8"/>
  <path d="M50 12 L50 18" stroke="#27ae60" stroke-width="1.5"/>
</svg>
